<svg width="57" height="32" viewBox="0 0 57 32" fill="none" xmlns="http://www.w3.org/2000/svg">
<path d="M44.5312 17.7777H12.4688C11.4712 17.7777 10.6875 16.9955 10.6875 15.9999C10.6875 15.0044 11.4712 14.2222 12.4688 14.2222H44.5312C45.5288 14.2222 46.3125 15.0044 46.3125 15.9999C46.3125 16.9955 45.5288 17.7777 44.5312 17.7777Z" fill="white"/>
<path d="M35.625 30.2223C35.3914 30.2252 35.1598 30.1792 34.945 30.0873C34.7303 29.9955 34.5372 29.8598 34.3781 29.689C33.6656 28.9779 33.6656 27.8757 34.3781 27.1646L45.6 15.9646L34.3781 4.76456C33.6656 4.05345 33.6656 2.95123 34.3781 2.24012C35.0906 1.52901 36.195 1.52901 36.9075 2.24012L49.3763 14.6846C50.0888 15.3957 50.0888 16.4979 49.3763 17.209L36.9075 29.6535C36.5512 30.009 36.0881 30.1868 35.6606 30.1868L35.625 30.2223Z" fill="white"/>
</svg>
