<svg width="33" height="27" viewBox="0 0 33 27" fill="none" xmlns="http://www.w3.org/2000/svg">
<path opacity="0.2" d="M18.15 5.55343L30.2181 3.45793C30.3501 3.43593 30.4832 3.42493 30.6174 3.42493C31.9391 3.42493 33 4.52053 33 5.85868V22.0056C33 23.1936 32.1569 24.2166 30.9986 24.408L18.2853 26.5134C18.1869 26.5303 18.0863 26.5291 17.9883 26.5101L5.37077 24.4195C4.79227 24.3238 4.26657 24.0257 3.88733 23.5785C3.5081 23.1312 3.29996 22.5639 3.30002 21.9775V5.91808C3.30002 5.5573 3.37889 5.20088 3.53111 4.87379C3.68333 4.5467 3.90523 4.25684 4.18125 4.02452C4.45727 3.7922 4.78074 3.62303 5.12901 3.52886C5.47729 3.43469 5.84193 3.4178 6.19742 3.47938L18.15 5.55343Z" fill="white"/>
<path fill-rule="evenodd" clip-rule="evenodd" d="M16.632 3.10158L3.70261 0.981329C3.34818 0.922896 2.98527 0.942316 2.63909 1.03824C2.29292 1.13417 1.97177 1.3043 1.69796 1.53682C1.42415 1.76934 1.20423 2.05868 1.05349 2.38473C0.902742 2.71079 0.824778 3.06576 0.825013 3.42498V19.4927C0.824993 20.0828 1.0358 20.6534 1.41942 21.1018C1.80304 21.5502 2.33423 21.8467 2.91721 21.938L16.373 24.0417C16.4906 24.0601 16.6109 24.0527 16.7254 24.0202C16.84 23.9877 16.9461 23.9307 17.0366 23.8533C17.127 23.7758 17.1996 23.6797 17.2494 23.5715C17.2992 23.4634 17.325 23.3457 17.325 23.2266V3.91503C17.3248 3.71926 17.255 3.52996 17.128 3.38094C17.0011 3.23192 16.8253 3.1329 16.632 3.10158ZM3.43201 2.60988L15.675 4.61628V22.2614L3.17296 20.3045C2.97882 20.2742 2.80184 20.1757 2.67389 20.0265C2.54594 19.8774 2.47542 19.6875 2.47501 19.491V3.42498C2.47491 3.30541 2.50079 3.18725 2.55088 3.07868C2.60096 2.9701 2.67405 2.87371 2.76507 2.79618C2.8561 2.71866 2.96289 2.66184 3.07805 2.62967C3.19321 2.5975 3.31398 2.59075 3.43201 2.60988Z" fill="white"/>
<path fill-rule="evenodd" clip-rule="evenodd" d="M29.7 0.949952C29.5657 0.950053 29.4316 0.96109 29.2991 0.982952L16.368 3.0999C16.1751 3.13158 15.9997 3.23075 15.873 3.37973C15.7464 3.52872 15.6768 3.71783 15.6767 3.91335V23.225C15.6767 23.344 15.7025 23.4617 15.7523 23.5699C15.802 23.678 15.8747 23.7741 15.9651 23.8516C16.0556 23.929 16.1617 23.986 16.2763 24.0185C16.3908 24.051 16.5111 24.0584 16.6287 24.0401L30.0845 21.9363C30.6674 21.845 31.1986 21.5485 31.5823 21.1001C31.9659 20.6518 32.1767 20.0811 32.1767 19.491V3.42495C32.1767 3.09979 32.1126 2.77782 31.9881 2.47743C31.8636 2.17704 31.6812 1.90413 31.4512 1.67428C31.2212 1.44443 30.9481 1.26216 30.6477 1.13788C30.3472 1.01359 30.0252 0.949735 29.7 0.949952ZM29.8271 20.3045L17.325 22.263V4.61625L29.568 2.60985C29.686 2.59072 29.8068 2.59747 29.922 2.62964C30.0371 2.66181 30.1439 2.71863 30.235 2.79616C30.326 2.87369 30.3991 2.97008 30.4492 3.07865C30.4992 3.18722 30.5251 3.30538 30.525 3.42495V19.491C30.5246 19.6875 30.4541 19.8774 30.3261 20.0265C30.1982 20.1756 30.0212 20.2742 29.8271 20.3045Z" fill="white"/>
</svg>
