<svg width="66" height="66" viewBox="0 0 66 66" fill="none" xmlns="http://www.w3.org/2000/svg">
<rect y="-9" width="66" height="75" fill="#695959"/>
<path d="M15 11.9793C15 11.4823 15.1536 11.0056 15.4271 10.6541C15.7006 10.3026 16.0716 10.1052 16.4583 10.1052H48.5417C48.9284 10.1052 49.2994 10.3026 49.5729 10.6541C49.8464 11.0056 50 11.4823 50 11.9793C50 12.4763 49.8464 12.953 49.5729 13.3045C49.2994 13.656 48.9284 13.8534 48.5417 13.8534H16.4583C16.0716 13.8534 15.7006 13.656 15.4271 13.3045C15.1536 12.953 15 12.4763 15 11.9793ZM15 30.7205C15 30.2234 15.1536 29.7467 15.4271 29.3953C15.7006 29.0438 16.0716 28.8463 16.4583 28.8463H48.5417C48.9284 28.8463 49.2994 29.0438 49.5729 29.3953C49.8464 29.7467 50 30.2234 50 30.7205C50 31.2175 49.8464 31.6942 49.5729 32.0457C49.2994 32.3971 48.9284 32.5946 48.5417 32.5946H16.4583C16.0716 32.5946 15.7006 32.3971 15.4271 32.0457C15.1536 31.6942 15 31.2175 15 30.7205ZM16.4583 47.5875C16.0716 47.5875 15.7006 47.785 15.4271 48.1364C15.1536 48.4879 15 48.9646 15 49.4616C15 49.9587 15.1536 50.4354 15.4271 50.7868C15.7006 51.1383 16.0716 51.3357 16.4583 51.3357H48.5417C48.9284 51.3357 49.2994 51.1383 49.5729 50.7868C49.8464 50.4354 50 49.9587 50 49.4616C50 48.9646 49.8464 48.4879 49.5729 48.1364C49.2994 47.785 48.9284 47.5875 48.5417 47.5875H16.4583Z" fill="white"/>
</svg>
