<svg width="55" height="55" viewBox="0 0 55 55" fill="none" xmlns="http://www.w3.org/2000/svg">
<path d="M49.8781 20.2022L14.465 16.2834L12.3063 8.10391C12.2307 7.82986 12.0678 7.58793 11.8423 7.41485C11.6168 7.24176 11.341 7.14697 11.0567 7.14485H5.74064C5.54888 6.88582 5.29954 6.6749 5.01229 6.52874C4.72505 6.38259 4.40777 6.30519 4.08549 6.30266C3.51956 6.30266 2.97681 6.52747 2.57664 6.92764C2.17647 7.32781 1.95166 7.87056 1.95166 8.43649C1.95166 9.00241 2.17647 9.54516 2.57664 9.94533C2.97681 10.3455 3.51956 10.5703 4.08549 10.5703C4.77299 10.5703 5.35393 10.2266 5.74408 9.72469H10.0616L19.0506 43.7559C18.0698 44.7995 17.5229 46.1772 17.521 47.6094C17.5203 48.3527 17.6662 49.0888 17.9502 49.7757C18.2343 50.4626 18.651 51.0867 19.1766 51.6124C19.7021 52.1381 20.3261 52.555 21.0129 52.8393C21.6997 53.1236 22.4358 53.2697 23.1791 53.2692C24.6809 53.2697 26.1215 52.6737 27.1841 51.6124C28.2467 50.5511 28.8444 49.1112 28.8458 47.6094C28.8427 47.1789 28.789 46.7503 28.686 46.3323H38.1958C38.0948 46.7506 38.0418 47.1791 38.0377 47.6094C38.0377 50.7375 40.5745 53.2692 43.7027 53.2692C46.8308 53.2692 49.3625 50.7375 49.3625 47.6094C49.363 46.1072 48.7668 44.6664 47.7051 43.6037C46.6434 42.541 45.2031 41.9436 43.701 41.9427C42.0681 41.9427 40.6072 42.6473 39.5725 43.7525H27.3075C26.7809 43.1831 26.1424 42.7284 25.4321 42.417C24.7217 42.1056 23.9547 41.9441 23.1791 41.9427C22.526 41.9427 21.9106 42.0767 21.328 42.2795L21.0152 41.1005H46.0797C47.0429 41.0808 47.9716 40.7379 48.7166 40.127C49.4616 39.5161 49.9796 38.6725 50.1875 37.7317L52.8945 24.3289C52.9421 24.0948 52.9652 23.8563 52.9633 23.6173C52.9646 22.7666 52.6496 21.9457 52.0794 21.3142C51.5092 20.6827 50.7247 20.2875 49.8781 20.2022ZM43.7044 48.1147C43.57 48.1134 43.4415 48.0596 43.3461 47.9649C43.2508 47.8702 43.1962 47.742 43.1939 47.6077C43.1991 47.3223 43.426 47.0955 43.7061 47.0955C43.9863 47.0955 44.2131 47.3223 44.2166 47.6059C44.2139 47.74 44.1591 47.8678 44.0638 47.9621C43.9685 48.0564 43.8402 48.1099 43.7061 48.1113L43.7044 48.1147ZM46.7638 35.2327L48.3931 33.5998L47.8466 36.3155L46.7638 35.2327ZM21.9227 19.7003L23.7016 21.4844L21.4844 23.7016L19.262 21.4844L21.1303 19.6144L21.9227 19.7003ZM29.6536 20.5563L30.5783 21.4844L28.3611 23.7016L26.1388 21.4844L27.3213 20.2984L29.6536 20.5563ZM16.5516 24.1931L18.0469 22.7013L20.2641 24.9219L18.0469 27.1391L17.0758 26.1714L16.5533 24.1914L16.5516 24.1931ZM16.0445 22.2681L15.4808 20.1369L16.83 21.4861L16.0445 22.2681ZM37.4516 28.3594L35.2344 30.5766L33.0121 28.3594L35.2327 26.137L37.4516 28.3594ZM36.4496 24.9219L38.6702 22.7013L40.8874 24.9219L38.6702 27.1425L36.4496 24.9219ZM31.7969 27.1391L29.5746 24.9219L31.7952 22.6995L34.0124 24.9202L31.7969 27.1391ZM30.5766 28.3594L28.3594 30.5766L26.1388 28.3594L28.3594 26.137L30.5766 28.3594ZM24.9219 27.1391L22.6995 24.9219L24.9202 22.6995L27.1374 24.9202L24.9219 27.1391ZM23.7016 28.3594L21.4844 30.5766L19.262 28.3594L21.4827 26.137L23.7016 28.3594ZM18.0469 29.5745L20.2641 31.7952L18.9166 33.1409L17.9885 29.6278L18.0452 29.5711L18.0469 29.5745ZM19.4253 35.0694L21.4827 33.012L23.6999 35.2327L21.4827 37.4498L19.5405 35.5077L19.4253 35.0694ZM22.7013 31.7952L24.9185 29.5728L27.1408 31.7934L24.9236 34.0106L22.703 31.7934L22.7013 31.7952ZM28.3594 33.0103L30.58 35.2309L28.3594 37.4481L26.1388 35.2309L28.3594 33.0103ZM29.5763 31.7934L31.7969 29.5711L34.0141 31.7917L31.7969 34.0089L29.5763 31.7934ZM35.231 33.0086L37.4533 35.2292L35.2361 37.4464L33.0155 35.2258L35.231 33.0086ZM36.4513 31.7917L38.6685 29.5694L40.8908 31.79L38.6736 34.0072L36.4513 31.7917ZM39.8888 28.3542L42.106 26.1319L44.3283 28.3525L42.1111 30.5697L39.8888 28.3542ZM43.3263 24.9167L45.5435 22.6944L47.7641 24.9219L45.5469 27.1425L43.3246 24.9202L43.3263 24.9167ZM42.106 23.6998L40.1208 21.713L43.6992 22.1083L42.106 23.6998ZM37.455 21.4844L35.2378 23.705L33.0155 21.4844L33.5139 20.9859L37.3863 21.4156L37.455 21.4844ZM24.9253 20.2641L24.6641 20.0063L25.1333 20.0578L24.927 20.2641H24.9253ZM18.0503 20.2675L16.9331 19.1503L18.9441 19.3738L18.0503 20.2675ZM24.9253 36.4495L26.9964 38.5206H22.8542L24.9253 36.4495ZM31.8003 36.4495L33.8714 38.5223H29.7258L31.8003 36.4495ZM38.6753 36.4495L40.7499 38.5241H36.6008L38.6753 36.4495ZM39.8905 35.2327L42.1111 33.0103L44.3283 35.2309L42.1111 37.4481L39.8905 35.2327ZM43.328 31.7952L45.5486 29.5745L47.7658 31.7917L45.5486 34.0141L43.3263 31.7969L43.328 31.7952ZM48.9861 30.5748L46.7655 28.3577L48.9827 26.137L49.7475 26.9002L49.0085 30.5508L48.9844 30.5766L48.9861 30.5748ZM49.8455 22.8405L48.9861 23.6998L47.8517 22.5706L49.5997 22.7631C49.6925 22.7769 49.7716 22.8078 49.8472 22.8388L49.8455 22.8405ZM23.1825 48.113C23.0525 48.1054 22.9302 48.0484 22.8409 47.9537C22.7515 47.859 22.7017 47.7336 22.7017 47.6034C22.7017 47.4731 22.7515 47.3478 22.8409 47.253C22.9302 47.1583 23.0525 47.1013 23.1825 47.0938C23.3121 47.1013 23.4339 47.1581 23.523 47.2525C23.6121 47.3469 23.6617 47.4718 23.6617 47.6016C23.6617 47.7314 23.6121 47.8564 23.523 47.9508C23.4339 48.0452 23.3121 48.102 23.1825 48.1095V48.113ZM46.0814 38.5223H43.4741L45.5486 36.4478L47.147 38.0462C46.8256 38.3384 46.42 38.5447 46.0814 38.5223Z" fill="white"/>
</svg>
