<svg width="111" height="111" viewBox="0 0 111 111" fill="none" xmlns="http://www.w3.org/2000/svg">
<path d="M72.3257 21.1177L72.5847 21.2657C69.079 23.1157 59.0612 29.082 59.0612 36.6762C59.0612 39.2385 60.5274 41.7082 61.901 44.03C63.1127 46.0742 64.2551 47.9982 64.2551 49.7557C64.2551 54.1818 59.94 57.6182 57.5026 59.2L57.0401 58.9317C57.9605 57.8078 59.0936 55.9255 59.0936 53.9182C59.0936 51.1525 57.6737 48.9417 56.2354 46.6986C54.7461 44.3815 53.2384 42.0273 53.2384 38.9748C53.2384 28.3743 67.6452 22.6856 72.3257 21.1177ZM53.3864 26.7232C59.1815 21.5432 65.5131 15.8822 65.5131 7.36759C65.5131 3.51496 63.936 1.05446 63.1544 0.0693359L62.9 0.212711C63.085 0.980461 63.3625 2.39571 63.3625 4.24571C63.3625 11.9972 56.7857 17.427 50.4217 22.6902C44.4509 27.6297 38.665 32.412 38.665 38.813C38.665 47.9936 47.7207 53.6407 51.5456 56.0272L51.837 56.2122L52.0682 56.0735C51.8617 55.8453 51.6427 55.611 51.4115 55.3705C48.47 52.2393 44.0022 47.4895 44.0022 40.2236C44.0022 35.1222 48.5024 31.0938 53.3864 26.7232ZM51.3005 72.5477C59.459 72.5477 65.1662 71.3776 67.7007 70.6607L71.5487 72.8807C67.8811 74.7446 59.7504 76.1645 51.282 76.1645C41.3244 76.1645 30.4371 74.0277 30.4047 71.1787C30.3816 69.6062 33.9429 68.561 37.7816 67.8857L38.0129 68.0198C38.0129 68.0198 36.7132 68.487 36.7271 69.56C36.7456 71.1787 43.2946 72.5477 51.2959 72.5477M34.9742 82.5886C34.9742 80.7062 38.8546 79.8136 40.6306 79.4575L40.8619 79.5962C40.5566 79.8228 40.3901 80.1327 40.3901 80.3963C40.3901 81.6312 44.6914 82.7597 51.2866 82.7597C57.1974 82.7597 60.4811 82.0336 62.4329 81.5665L67.0116 84.2166C66.8035 84.3646 62.2941 87.1997 51.2774 87.1997C43.2715 87.1997 34.9742 85.2017 34.9742 82.5886ZM74.4209 74.5966C79.8784 71.484 85.3405 67.8025 85.6504 61.8917C85.8539 58.0113 82.288 55.167 78.3891 55.9255L78.5972 55.4075V55.3982C79.5777 55.1022 80.7895 54.8617 82.1446 54.8617C86.506 54.8617 89.8499 57.4748 90.2754 61.1332C91.1356 68.4685 80.7386 73.2415 74.9157 74.8833L74.4209 74.5966ZM83.5552 88.4161C83.6015 93.4573 66.452 96.4543 51.1247 96.5885C37.8926 96.7041 16.5575 94.2066 16.5112 89.1653C16.4835 85.6827 25.7612 83.2731 30.8025 82.5793L31.3344 82.88C31.3344 82.88 23.8187 84.6236 23.8419 87.7917C23.8696 90.9506 39.6825 93.684 51.1016 93.5868C68.7922 93.4296 80.7663 90.5482 82.1816 86.6401L82.4314 86.4967C82.9494 86.876 83.5414 87.5003 83.5552 88.4161ZM29.7387 98.6836C36.2828 99.7291 42.9022 100.232 49.5291 100.187C78.2411 99.937 86.3441 92.8792 87.5929 91.3437L87.8102 91.4732C87.5142 97.0602 72.3304 101.704 53.6037 101.866C44.0716 101.949 35.3951 100.848 29.1606 99.0212L29.7387 98.6836ZM41.773 55.7497C36.7826 56.1336 26.0665 57.72 26.0665 60.5412C26.0665 62.678 35.89 65.6888 51.282 65.6888C65.1292 65.6888 73.8705 63.0757 75.9101 62.0813L72.9362 60.347C70.8087 60.9251 62.9046 62.6872 51.282 62.6872C44.437 62.6872 32.6432 61.4246 32.6432 59.496C32.6432 57.7662 40.0016 56.4342 42.1152 56.0503L42.2494 56.0272L41.773 55.7497Z" fill="white"/>
</svg>
