<svg width="162" height="55" viewBox="0 0 162 55" fill="none" xmlns="http://www.w3.org/2000/svg">
<path d="M1.59801 22V7.45455H3.79261V13.7756H11.044V7.45455H13.2457V22H11.044V15.6577H3.79261V22H1.59801ZM20.973 22.2202C19.8982 22.2202 18.9725 21.9905 18.196 21.5312C17.4242 21.0672 16.8277 20.4162 16.4062 19.5781C15.9896 18.7353 15.7812 17.7481 15.7812 16.6165C15.7812 15.4991 15.9896 14.5142 16.4062 13.6619C16.8277 12.8097 17.4148 12.1444 18.1676 11.6662C18.9252 11.188 19.8106 10.9489 20.8239 10.9489C21.4394 10.9489 22.036 11.0507 22.6136 11.2543C23.1913 11.4579 23.7098 11.7775 24.169 12.2131C24.6283 12.6487 24.9905 13.2145 25.2557 13.9105C25.5208 14.6018 25.6534 15.4422 25.6534 16.4318V17.1847H16.9815V15.5938H23.5724C23.5724 15.035 23.4588 14.5402 23.2315 14.1094C23.0043 13.6738 22.6847 13.3305 22.2727 13.0795C21.8655 12.8286 21.3873 12.7031 20.8381 12.7031C20.2415 12.7031 19.7206 12.8499 19.2756 13.1435C18.8352 13.4323 18.4943 13.8111 18.2528 14.2798C18.0161 14.7438 17.8977 15.2481 17.8977 15.7926V17.0355C17.8977 17.7647 18.0256 18.3849 18.2812 18.8963C18.5417 19.4077 18.9039 19.7983 19.3679 20.0682C19.8319 20.3333 20.3741 20.4659 20.9943 20.4659C21.3968 20.4659 21.7637 20.4091 22.0952 20.2955C22.4266 20.1771 22.7131 20.0019 22.9545 19.7699C23.196 19.5379 23.3807 19.2514 23.5085 18.9105L25.5185 19.2727C25.3575 19.8646 25.0687 20.383 24.652 20.8281C24.2401 21.2685 23.7216 21.6117 23.0966 21.858C22.4763 22.0994 21.7685 22.2202 20.973 22.2202ZM28.0096 22V11.0909H30.0621V12.8239H30.1758C30.3746 12.2367 30.725 11.7751 31.2269 11.4389C31.7335 11.098 32.3065 10.9276 32.9457 10.9276C33.0782 10.9276 33.2345 10.9323 33.4144 10.9418C33.5991 10.9512 33.7435 10.9631 33.8477 10.9773V13.0085C33.7624 12.9848 33.6109 12.9588 33.3931 12.9304C33.1753 12.8973 32.9575 12.8807 32.7397 12.8807C32.2378 12.8807 31.7904 12.9872 31.3974 13.2003C31.0091 13.4086 30.7013 13.6998 30.4741 14.0739C30.2468 14.4432 30.1332 14.8646 30.1332 15.3381V22H28.0096ZM35.8558 22V7.45455H37.9794V12.8594H38.1072C38.2304 12.6321 38.4079 12.3693 38.6399 12.071C38.8719 11.7727 39.1939 11.5123 39.6058 11.2898C40.0178 11.0625 40.5623 10.9489 41.2393 10.9489C42.12 10.9489 42.906 11.1714 43.5973 11.6165C44.2886 12.0616 44.8307 12.7031 45.2237 13.5412C45.6214 14.3793 45.8203 15.3878 45.8203 16.5668C45.8203 17.7457 45.6238 18.7566 45.2308 19.5994C44.8378 20.4375 44.2981 21.0838 43.6115 21.5384C42.925 21.9882 42.1413 22.2131 41.2607 22.2131C40.5978 22.2131 40.0556 22.1018 39.6342 21.8793C39.2176 21.6567 38.8909 21.3963 38.6541 21.098C38.4174 20.7997 38.2351 20.5346 38.1072 20.3026H37.9297V22H35.8558ZM37.9368 16.5455C37.9368 17.3125 38.0481 17.9848 38.2706 18.5625C38.4931 19.1402 38.8151 19.5923 39.2365 19.919C39.6579 20.241 40.174 20.402 40.7848 20.402C41.4193 20.402 41.9496 20.2339 42.3757 19.8977C42.8018 19.5568 43.1238 19.0952 43.3416 18.5128C43.5642 17.9304 43.6754 17.2746 43.6754 16.5455C43.6754 15.8258 43.5665 15.1795 43.3487 14.6065C43.1357 14.0336 42.8137 13.5814 42.3828 13.25C41.9567 12.9186 41.424 12.7528 40.7848 12.7528C40.1693 12.7528 39.6484 12.9115 39.2223 13.2287C38.8009 13.5459 38.4813 13.9886 38.2635 14.5568C38.0457 15.125 37.9368 15.7879 37.9368 16.5455ZM52.9066 22.2202C51.8318 22.2202 50.9061 21.9905 50.1296 21.5312C49.3578 21.0672 48.7612 20.4162 48.3398 19.5781C47.9232 18.7353 47.7148 17.7481 47.7148 16.6165C47.7148 15.4991 47.9232 14.5142 48.3398 13.6619C48.7612 12.8097 49.3484 12.1444 50.1012 11.6662C50.8588 11.188 51.7442 10.9489 52.7575 10.9489C53.373 10.9489 53.9696 11.0507 54.5472 11.2543C55.1249 11.4579 55.6433 11.7775 56.1026 12.2131C56.5619 12.6487 56.9241 13.2145 57.1893 13.9105C57.4544 14.6018 57.587 15.4422 57.587 16.4318V17.1847H48.9151V15.5938H55.506C55.506 15.035 55.3924 14.5402 55.1651 14.1094C54.9379 13.6738 54.6183 13.3305 54.2063 13.0795C53.7991 12.8286 53.3209 12.7031 52.7717 12.7031C52.1751 12.7031 51.6542 12.8499 51.2092 13.1435C50.7688 13.4323 50.4279 13.8111 50.1864 14.2798C49.9497 14.7438 49.8313 15.2481 49.8313 15.7926V17.0355C49.8313 17.7647 49.9592 18.3849 50.2148 18.8963C50.4753 19.4077 50.8375 19.7983 51.3015 20.0682C51.7655 20.3333 52.3076 20.4659 52.9279 20.4659C53.3304 20.4659 53.6973 20.4091 54.0288 20.2955C54.3602 20.1771 54.6467 20.0019 54.8881 19.7699C55.1296 19.5379 55.3143 19.2514 55.4421 18.9105L57.4521 19.2727C57.2911 19.8646 57.0022 20.383 56.5856 20.8281C56.1737 21.2685 55.6552 21.6117 55.0302 21.858C54.4099 22.0994 53.7021 22.2202 52.9066 22.2202ZM59.9432 22V11.0909H61.9957V12.8239H62.1094C62.3082 12.2367 62.6586 11.7751 63.1605 11.4389C63.6671 11.098 64.2401 10.9276 64.8793 10.9276C65.0118 10.9276 65.1681 10.9323 65.348 10.9418C65.5327 10.9512 65.6771 10.9631 65.7812 10.9773V13.0085C65.696 12.9848 65.5445 12.9588 65.3267 12.9304C65.1089 12.8973 64.8911 12.8807 64.6733 12.8807C64.1714 12.8807 63.724 12.9872 63.331 13.2003C62.9427 13.4086 62.6349 13.6998 62.4077 14.0739C62.1804 14.4432 62.0668 14.8646 62.0668 15.3381V22H59.9432ZM73.3558 11.0909V12.7955H67.397V11.0909H73.3558ZM68.995 8.47727H71.1186V18.7969C71.1186 19.2088 71.1802 19.5189 71.3033 19.7273C71.4264 19.9309 71.585 20.0705 71.7791 20.1463C71.978 20.2173 72.1934 20.2528 72.4254 20.2528C72.5959 20.2528 72.745 20.241 72.8729 20.2173C73.0007 20.1937 73.1001 20.1747 73.1712 20.1605L73.5547 21.9148C73.4316 21.9621 73.2564 22.0095 73.0291 22.0568C72.8018 22.1089 72.5178 22.1373 72.1768 22.142C71.6181 22.1515 71.0973 22.0521 70.6143 21.8438C70.1314 21.6354 69.7408 21.3134 69.4425 20.8778C69.1442 20.4422 68.995 19.8954 68.995 19.2372V8.47727Z" fill="black" fill-opacity="0.8"/>
<rect x="79" y="22" width="83" height="24" fill="#9F6767"/>
<path d="M96.5312 30.2756C96.4555 29.6032 96.143 29.0824 95.5938 28.7131C95.0445 28.339 94.3532 28.152 93.5199 28.152C92.9233 28.152 92.4072 28.2467 91.9716 28.4361C91.536 28.6207 91.1974 28.8764 90.956 29.2031C90.7192 29.5251 90.6009 29.892 90.6009 30.304C90.6009 30.6496 90.6813 30.9479 90.8423 31.1989C91.008 31.4498 91.2235 31.6605 91.4886 31.831C91.7585 31.9967 92.0473 32.1364 92.3551 32.25C92.6629 32.3589 92.9588 32.4489 93.2429 32.5199L94.6634 32.8892C95.1274 33.0028 95.6032 33.1567 96.0909 33.3509C96.5786 33.545 97.0308 33.8007 97.4474 34.1179C97.8641 34.4351 98.2003 34.8281 98.456 35.2969C98.7164 35.7656 98.8466 36.3267 98.8466 36.9801C98.8466 37.804 98.6335 38.5355 98.2074 39.1747C97.786 39.8139 97.1728 40.3182 96.3679 40.6875C95.5677 41.0568 94.5994 41.2415 93.4631 41.2415C92.3741 41.2415 91.4318 41.0687 90.6364 40.723C89.8409 40.3774 89.2183 39.8873 88.7685 39.2528C88.3187 38.6136 88.0701 37.8561 88.0227 36.9801H90.2244C90.267 37.5057 90.4375 37.9437 90.7358 38.294C91.0388 38.6397 91.4247 38.8977 91.8935 39.0682C92.367 39.2339 92.8854 39.3168 93.4489 39.3168C94.0691 39.3168 94.6207 39.2197 95.1037 39.0256C95.5914 38.8267 95.9749 38.5521 96.2543 38.2017C96.5336 37.8466 96.6733 37.4323 96.6733 36.9588C96.6733 36.5279 96.5502 36.1752 96.304 35.9006C96.0625 35.6259 95.7334 35.3987 95.3168 35.2188C94.9048 35.0388 94.4384 34.8802 93.9176 34.7429L92.1989 34.2741C91.0341 33.9569 90.1108 33.4905 89.429 32.875C88.7519 32.2595 88.4134 31.4451 88.4134 30.4318C88.4134 29.5937 88.6406 28.8622 89.0952 28.2372C89.5497 27.6122 90.1652 27.1269 90.9418 26.7812C91.7183 26.4309 92.5942 26.2557 93.5696 26.2557C94.5545 26.2557 95.4233 26.4285 96.1761 26.7741C96.9337 27.1198 97.5303 27.5956 97.9659 28.2017C98.4015 28.803 98.6288 29.4943 98.6477 30.2756H96.5312ZM105.894 41.2202C104.838 41.2202 103.929 40.9811 103.167 40.5028C102.409 40.0199 101.827 39.3546 101.419 38.5071C101.012 37.6596 100.809 36.6889 100.809 35.5952C100.809 34.4872 101.017 33.5095 101.434 32.6619C101.85 31.8097 102.437 31.1444 103.195 30.6662C103.953 30.188 104.845 29.9489 105.873 29.9489C106.701 29.9489 107.44 30.1027 108.088 30.4105C108.737 30.7135 109.26 31.1397 109.658 31.6889C110.06 32.2382 110.3 32.8797 110.375 33.6136H108.309C108.195 33.1023 107.935 32.6619 107.527 32.2926C107.125 31.9233 106.585 31.7386 105.908 31.7386C105.316 31.7386 104.798 31.8949 104.353 32.2074C103.912 32.5152 103.569 32.9555 103.323 33.5284C103.077 34.0966 102.953 34.7689 102.953 35.5455C102.953 36.3409 103.074 37.0275 103.316 37.6051C103.557 38.1828 103.898 38.6302 104.338 38.9474C104.783 39.2647 105.307 39.4233 105.908 39.4233C106.31 39.4233 106.675 39.3499 107.002 39.2031C107.333 39.0516 107.61 38.8362 107.833 38.5568C108.06 38.2775 108.219 37.9413 108.309 37.5483H110.375C110.3 38.2538 110.07 38.8835 109.686 39.4375C109.303 39.9915 108.789 40.4271 108.145 40.7443C107.506 41.0616 106.756 41.2202 105.894 41.2202ZM114.77 34.5227V41H112.646V26.4545H114.741V31.8665H114.876C115.132 31.2794 115.523 30.813 116.048 30.4673C116.574 30.1217 117.26 29.9489 118.108 29.9489C118.856 29.9489 119.509 30.1027 120.068 30.4105C120.632 30.7183 121.067 31.1776 121.375 31.7884C121.688 32.3944 121.844 33.152 121.844 34.0611V41H119.72V34.3168C119.72 33.5166 119.514 32.8963 119.102 32.456C118.69 32.0109 118.117 31.7884 117.384 31.7884C116.882 31.7884 116.432 31.8949 116.034 32.108C115.641 32.321 115.331 32.6335 115.104 33.0455C114.881 33.4527 114.77 33.9451 114.77 34.5227ZM124.678 41V30.0909H126.801V41H124.678ZM125.75 28.4077C125.381 28.4077 125.063 28.2846 124.798 28.0384C124.538 27.7874 124.408 27.4891 124.408 27.1435C124.408 26.7931 124.538 26.4948 124.798 26.2486C125.063 25.9976 125.381 25.8722 125.75 25.8722C126.119 25.8722 126.434 25.9976 126.695 26.2486C126.96 26.4948 127.092 26.7931 127.092 27.1435C127.092 27.4891 126.96 27.7874 126.695 28.0384C126.434 28.2846 126.119 28.4077 125.75 28.4077ZM131.782 26.4545V41H129.658V26.4545H131.782ZM138.722 41.2131C137.842 41.2131 137.056 40.9882 136.364 40.5384C135.678 40.0838 135.138 39.4375 134.745 38.5994C134.357 37.7566 134.163 36.7457 134.163 35.5668C134.163 34.3878 134.359 33.3793 134.752 32.5412C135.15 31.7031 135.694 31.0616 136.386 30.6165C137.077 30.1714 137.861 29.9489 138.737 29.9489C139.414 29.9489 139.958 30.0625 140.37 30.2898C140.787 30.5123 141.109 30.7727 141.336 31.071C141.568 31.3693 141.748 31.6321 141.876 31.8594H142.004V26.4545H144.127V41H142.053V39.3026H141.876C141.748 39.5346 141.563 39.7997 141.322 40.098C141.085 40.3963 140.758 40.6567 140.342 40.8793C139.925 41.1018 139.385 41.2131 138.722 41.2131ZM139.191 39.402C139.802 39.402 140.318 39.241 140.739 38.919C141.165 38.5923 141.487 38.1402 141.705 37.5625C141.928 36.9848 142.039 36.3125 142.039 35.5455C142.039 34.7879 141.93 34.125 141.712 33.5568C141.495 32.9886 141.175 32.5459 140.754 32.2287C140.332 31.9115 139.811 31.7528 139.191 31.7528C138.552 31.7528 138.019 31.9186 137.593 32.25C137.167 32.5814 136.845 33.0336 136.627 33.6065C136.414 34.1795 136.308 34.8258 136.308 35.5455C136.308 36.2746 136.416 36.9304 136.634 37.5128C136.852 38.0952 137.174 38.5568 137.6 38.8977C138.031 39.2339 138.561 39.402 139.191 39.402ZM152.25 30.0909V31.7955H146.292V30.0909H152.25ZM147.89 27.4773H150.013V37.7969C150.013 38.2088 150.075 38.5189 150.198 38.7273C150.321 38.9309 150.48 39.0705 150.674 39.1463C150.873 39.2173 151.088 39.2528 151.32 39.2528C151.49 39.2528 151.64 39.241 151.767 39.2173C151.895 39.1937 151.995 39.1747 152.066 39.1605L152.449 40.9148C152.326 40.9621 152.151 41.0095 151.924 41.0568C151.696 41.1089 151.412 41.1373 151.071 41.142C150.513 41.1515 149.992 41.0521 149.509 40.8438C149.026 40.6354 148.635 40.3134 148.337 39.8778C148.039 39.4422 147.89 38.8954 147.89 38.2372V27.4773Z" fill="white"/>
<path d="M19.82 45.61V46H16.97V45.61L17.78 45.52C17.89 45.51 17.97 45.495 18.02 45.475C18.07 45.445 18.115 45.385 18.155 45.295C18.205 45.195 18.265 45.025 18.335 44.785L21.23 35.8H22.175L25.1 44.785C25.17 45.025 25.225 45.195 25.265 45.295C25.315 45.385 25.365 45.445 25.415 45.475C25.465 45.495 25.54 45.51 25.64 45.52L26.465 45.61V46H22.82V45.61L23.645 45.52C23.805 45.5 23.89 45.46 23.9 45.4C23.92 45.33 23.875 45.125 23.765 44.785L23.15 42.865H19.49L18.875 44.785C18.765 45.125 18.715 45.33 18.725 45.4C18.745 45.46 18.835 45.5 18.995 45.52L19.82 45.61ZM19.64 42.385H23L21.32 37.165L19.64 42.385ZM34.8811 45.61V46H32.5711V44.8C32.2211 45.27 31.8211 45.615 31.3711 45.835C30.9311 46.045 30.4911 46.15 30.0511 46.15C29.3411 46.15 28.7861 45.925 28.3861 45.475C27.9961 45.015 27.8011 44.37 27.8011 43.54V39.79C27.8011 39.44 27.7861 39.235 27.7561 39.175C27.7261 39.115 27.6311 39.075 27.4711 39.055L26.6461 38.98V38.575H29.0311V43.525C29.0311 44.265 29.1411 44.79 29.3611 45.1C29.5911 45.4 29.9211 45.55 30.3511 45.55C30.6711 45.55 31.0211 45.45 31.4011 45.25C31.7911 45.05 32.1561 44.665 32.4961 44.095V39.79C32.4961 39.44 32.4811 39.235 32.4511 39.175C32.4211 39.105 32.3261 39.065 32.1661 39.055L31.0411 38.98V38.575H33.7261V44.785C33.7261 45.135 33.7411 45.34 33.7711 45.4C33.8011 45.46 33.8961 45.5 34.0561 45.52L34.8811 45.61ZM40.7855 44.47C40.6355 45.05 40.4005 45.475 40.0805 45.745C39.7605 46.015 39.3505 46.15 38.8505 46.15C38.3705 46.15 37.9805 46.045 37.6805 45.835C37.3805 45.615 37.1605 45.33 37.0205 44.98C36.8805 44.63 36.8105 44.265 36.8105 43.885V39.79C36.8105 39.44 36.7955 39.235 36.7655 39.175C36.7455 39.115 36.6505 39.075 36.4805 39.055L35.6555 38.98V38.575H36.8105V36.61L38.0405 36.355V38.575H40.4855V39.055H38.0405V44.005C38.0405 44.635 38.1255 45.07 38.2955 45.31C38.4755 45.55 38.7105 45.67 39.0005 45.67C39.2905 45.67 39.5105 45.56 39.6605 45.34C39.8205 45.12 39.9355 44.76 40.0055 44.26L40.7855 44.47ZM49.9163 45.61V46H46.3763V45.61L47.2013 45.52C47.3613 45.5 47.4563 45.46 47.4863 45.4C47.5163 45.34 47.5313 45.135 47.5313 44.785V41.05C47.5313 40.31 47.4113 39.79 47.1713 39.49C46.9313 39.18 46.5913 39.025 46.1513 39.025C45.8113 39.025 45.4413 39.125 45.0413 39.325C44.6413 39.525 44.2663 39.92 43.9163 40.51V44.785C43.9163 45.135 43.9313 45.34 43.9613 45.4C43.9913 45.46 44.0863 45.5 44.2463 45.52L45.0713 45.61V46H41.5313V45.61L42.3563 45.52C42.5163 45.5 42.6113 45.46 42.6413 45.4C42.6713 45.34 42.6863 45.135 42.6863 44.785V36.115C42.6863 35.765 42.6713 35.56 42.6413 35.5C42.6113 35.44 42.5163 35.4 42.3563 35.38L41.5313 35.305V34.9H43.9163V39.715C44.2663 39.265 44.6663 38.94 45.1163 38.74C45.5663 38.53 46.0113 38.425 46.4513 38.425C47.1913 38.425 47.7613 38.655 48.1613 39.115C48.5613 39.565 48.7613 40.205 48.7613 41.035V44.785C48.7613 45.135 48.7763 45.34 48.8063 45.4C48.8363 45.46 48.9313 45.5 49.0913 45.52L49.9163 45.61ZM57.6916 42.13V42.43C57.6916 43.56 57.4066 44.465 56.8366 45.145C56.2766 45.815 55.4766 46.15 54.4366 46.15C53.4066 46.15 52.6066 45.815 52.0366 45.145C51.4766 44.465 51.1966 43.56 51.1966 42.43V42.13C51.1966 41.01 51.4766 40.115 52.0366 39.445C52.5966 38.765 53.3966 38.425 54.4366 38.425C55.4766 38.425 56.2766 38.765 56.8366 39.445C57.4066 40.115 57.6916 41.01 57.6916 42.13ZM56.3416 41.83C56.3416 40.79 56.1766 40.045 55.8466 39.595C55.5266 39.135 55.0566 38.905 54.4366 38.905C53.8266 38.905 53.3566 39.135 53.0266 39.595C52.7066 40.045 52.5466 40.79 52.5466 41.83V42.73C52.5466 43.78 52.7066 44.535 53.0266 44.995C53.3566 45.445 53.8266 45.67 54.4366 45.67C55.0566 45.67 55.5266 45.445 55.8466 44.995C56.1766 44.535 56.3416 43.78 56.3416 42.73V41.83ZM59.1412 38.98V38.575H61.4512V39.775C61.8012 39.305 62.1512 38.965 62.5012 38.755C62.8612 38.535 63.2262 38.425 63.5962 38.425C63.9162 38.425 64.2162 38.52 64.4962 38.71C64.7762 38.9 65.0112 39.205 65.2012 39.625L64.2262 40.21C64.0762 39.85 63.9062 39.6 63.7162 39.46C63.5262 39.32 63.3162 39.25 63.0862 39.25C62.8362 39.25 62.5862 39.33 62.3362 39.49C62.0962 39.65 61.8262 39.95 61.5262 40.39V44.785C61.5262 45.135 61.5412 45.345 61.5712 45.415C61.6012 45.475 61.6962 45.51 61.8562 45.52L62.9812 45.61V46H59.1412V45.61L59.9662 45.52C60.1262 45.5 60.2212 45.46 60.2512 45.4C60.2812 45.34 60.2962 45.135 60.2962 44.785V39.79C60.2962 39.44 60.2812 39.235 60.2512 39.175C60.2212 39.115 60.1262 39.075 59.9662 39.055L59.1412 38.98Z" fill="black" fill-opacity="0.8"/>
<line x1="79.5" y1="2.18557e-08" x2="79.5" y2="55" stroke="black"/>
</svg>
