<svg width="20" height="20" viewBox="0 0 20 20" fill="none" xmlns="http://www.w3.org/2000/svg">
<path d="M8.87812 16.8778H7.89342C6.63985 16.8778 5.43763 16.3798 4.55123 15.4934C3.66482 14.607 3.16685 13.4048 3.16685 12.1512V7.03077C3.16685 5.77721 3.66482 4.57498 4.55123 3.68858C5.43763 2.80218 6.63985 2.3042 7.89342 2.3042H13.0139C14.2674 2.3042 15.4697 2.80218 16.3561 3.68858C17.2425 4.57498 17.7404 5.77721 17.7404 7.03077V8.01547" stroke="#675959" stroke-width="1.5" stroke-linecap="round"/>
<path d="M13.5779 13.4227L13.1762 15.7537C13.1241 15.9401 13.0143 16.1054 12.8626 16.2256C12.7109 16.3459 12.5249 16.4151 12.3315 16.4232C12.138 16.4313 11.947 16.378 11.7857 16.2709C11.6244 16.1638 11.5012 16.0084 11.4336 15.8269L9.23655 9.61778C9.17652 9.45363 9.16465 9.27573 9.20234 9.10505C9.24004 8.93438 9.32574 8.77803 9.44933 8.65443C9.57293 8.53084 9.72928 8.44514 9.89995 8.40744C10.0706 8.36975 10.2485 8.38162 10.4127 8.44166L16.7431 10.6379C16.9312 10.7028 17.093 10.827 17.2043 10.9919C17.3156 11.1567 17.3702 11.3533 17.36 11.552C17.3498 11.7506 17.2752 11.9405 17.1476 12.0931C17.02 12.2457 16.8463 12.3526 16.6525 12.3978L14.2002 12.7996C14.0528 12.8432 13.9185 12.9231 13.8098 13.032C13.7011 13.1408 13.6214 13.2751 13.5779 13.4227Z" stroke="#675959" stroke-width="1.5" stroke-linecap="round" stroke-linejoin="round"/>
</svg>
