<svg width="205" height="39" viewBox="0 0 205 39" fill="none" xmlns="http://www.w3.org/2000/svg">
<path d="M17.0709 1.55385C17.1264 1.39117 17.2257 1.25097 17.3556 1.152C17.4856 1.05303 17.6399 1 17.798 1C17.9561 1 18.1104 1.05303 18.2403 1.152C18.3703 1.25097 18.4696 1.39117 18.5251 1.55385L22.4607 13.8158H33.5763C33.7349 13.8165 33.8894 13.8705 34.0193 13.9704C34.1492 14.0703 34.2482 14.2114 34.3031 14.3749C34.358 14.5384 34.3661 14.7164 34.3264 14.8851C34.2866 15.0537 34.2009 15.205 34.0808 15.3187L24.7933 23.78L28.6803 36.6131C28.7319 36.785 28.7325 36.9705 28.682 37.1428C28.6316 37.3152 28.5327 37.4654 28.3995 37.572C28.2664 37.6786 28.1059 37.736 27.9411 37.7359C27.7764 37.7359 27.616 37.6783 27.4829 37.5716L17.7957 29.7616L8.10398 37.57C7.971 37.6758 7.81093 37.7326 7.64674 37.7322C7.48255 37.7318 7.32271 37.6742 7.19018 37.5677C7.05764 37.4612 6.95924 37.3113 6.9091 37.1395C6.85896 36.9677 6.85967 36.7828 6.91113 36.6115L10.7997 23.7784L1.51062 15.3171C1.39047 15.2034 1.30479 15.0521 1.26506 14.8834C1.22533 14.7147 1.23344 14.5367 1.28832 14.3732C1.34319 14.2098 1.4422 14.0686 1.5721 13.9687C1.70199 13.8688 1.85656 13.8149 2.01512 13.8142H13.1322L17.0709 1.55385Z" fill="#FFEF5E"/>
<path d="M17.5555 30.0258L7.86374 37.8342C7.73077 37.94 7.57069 37.9968 7.4065 37.9964C7.24232 37.996 7.08248 37.9384 6.94994 37.8319C6.81741 37.7254 6.719 37.5755 6.66886 37.4036C6.61873 37.2318 6.61943 37.047 6.67089 36.8756L10.5594 24.0426L1.27039 15.5812C1.15023 15.4676 1.06455 15.3162 1.02482 15.1476C0.985092 14.9789 0.993207 14.8009 1.04808 14.6374C1.10295 14.4739 1.20197 14.3328 1.33186 14.2329C1.46176 14.133 1.61633 14.0791 1.77488 14.0783H12.892L16.8276 1.81637C16.883 1.65305 16.9826 1.51232 17.113 1.41318C17.2434 1.31404 17.3984 1.26126 17.557 1.26197L17.5555 30.0258Z" fill="#FFEF5E"/>
<path d="M16.8306 1.81801C16.8861 1.65533 16.9855 1.51513 17.1154 1.41616C17.2453 1.31719 17.3997 1.26416 17.5578 1.26416C17.7158 1.26416 17.8702 1.31719 18.0001 1.41616C18.13 1.51513 18.2294 1.65533 18.2849 1.81801L22.2205 14.08H33.3361C33.4946 14.0807 33.6492 14.1346 33.7791 14.2345C33.909 14.3344 34.008 14.4756 34.0629 14.6391C34.1177 14.8025 34.1258 14.9805 34.0861 15.1492C34.0464 15.3179 33.9607 15.4692 33.8406 15.5829L24.553 24.0442L28.4401 36.8773C28.4917 37.0492 28.4923 37.2347 28.4418 37.407C28.3913 37.5793 28.2924 37.7296 28.1593 37.8362C28.0261 37.9428 27.8656 38.0002 27.7009 38.0001C27.5362 38 27.3757 37.9425 27.2426 37.8358L17.5555 30.0257L7.86374 37.8341C7.73077 37.94 7.57069 37.9968 7.4065 37.9964C7.24232 37.9959 7.08248 37.9384 6.94994 37.8319C6.81741 37.7254 6.719 37.5754 6.66886 37.4036C6.61873 37.2318 6.61943 37.047 6.67089 36.8756L10.5594 24.0425L1.27039 15.5812C1.15023 15.4675 1.06455 15.3162 1.02482 15.1475C0.985092 14.9789 0.993207 14.8009 1.04808 14.6374C1.10295 14.4739 1.20197 14.3328 1.33186 14.2329C1.46176 14.1329 1.61633 14.079 1.77488 14.0783H12.892L16.8306 1.81801Z" stroke="#191919" stroke-linecap="round" stroke-linejoin="round"/>
<path d="M59.5218 1.55385C59.5773 1.39117 59.6766 1.25097 59.8066 1.152C59.9365 1.05303 60.0908 1 60.2489 1C60.407 1 60.5613 1.05303 60.6913 1.152C60.8212 1.25097 60.9205 1.39117 60.976 1.55385L64.9117 13.8158H76.0272C76.1858 13.8165 76.3403 13.8705 76.4702 13.9704C76.6001 14.0703 76.6992 14.2114 76.754 14.3749C76.8089 14.5384 76.817 14.7164 76.7773 14.8851C76.7376 15.0537 76.6519 15.205 76.5317 15.3187L67.2442 23.78L71.1312 36.6131C71.1828 36.785 71.1834 36.9705 71.133 37.1428C71.0825 37.3152 70.9836 37.4654 70.8504 37.572C70.7173 37.6786 70.5568 37.736 70.3921 37.7359C70.2273 37.7359 70.0669 37.6783 69.9338 37.5716L60.2466 29.7616L50.5549 37.57C50.4219 37.6758 50.2619 37.7326 50.0977 37.7322C49.9335 37.7318 49.7736 37.6742 49.6411 37.5677C49.5086 37.4612 49.4102 37.3113 49.36 37.1395C49.3099 36.9677 49.3106 36.7828 49.3621 36.6115L53.2506 23.7784L43.9616 15.3171C43.8414 15.2034 43.7557 15.0521 43.716 14.8834C43.6763 14.7147 43.6844 14.5367 43.7392 14.3732C43.7941 14.2098 43.8931 14.0686 44.023 13.9687C44.1529 13.8688 44.3075 13.8149 44.466 13.8142H55.5831L59.5218 1.55385Z" fill="#FFEF5E"/>
<path d="M60.0064 30.0258L50.3147 37.8342C50.1817 37.94 50.0216 37.9968 49.8574 37.9964C49.6932 37.996 49.5334 37.9384 49.4009 37.8319C49.2683 37.7254 49.1699 37.5755 49.1198 37.4036C49.0697 37.2318 49.0704 37.047 49.1218 36.8756L53.0104 24.0426L43.7213 15.5812C43.6012 15.4676 43.5155 15.3162 43.4758 15.1476C43.436 14.9789 43.4441 14.8009 43.499 14.6374C43.5539 14.4739 43.6529 14.3328 43.7828 14.2329C43.9127 14.133 44.0673 14.0791 44.2258 14.0783H55.3429L59.2785 1.81637C59.3339 1.65305 59.4335 1.51232 59.5639 1.41318C59.6944 1.31404 59.8493 1.26126 60.0079 1.26197L60.0064 30.0258Z" fill="#FFEF5E"/>
<path d="M59.2816 1.81801C59.3371 1.65533 59.4364 1.51513 59.5663 1.41616C59.6963 1.31719 59.8506 1.26416 60.0087 1.26416C60.1668 1.26416 60.3211 1.31719 60.451 1.41616C60.581 1.51513 60.6803 1.65533 60.7358 1.81801L64.6714 14.08H75.787C75.9455 14.0807 76.1001 14.1346 76.23 14.2345C76.3599 14.3344 76.4589 14.4756 76.5138 14.6391C76.5687 14.8025 76.5768 14.9805 76.537 15.1492C76.4973 15.3179 76.4116 15.4692 76.2915 15.5829L67.004 24.0442L70.891 36.8773C70.9426 37.0492 70.9432 37.2347 70.8927 37.407C70.8423 37.5793 70.7433 37.7296 70.6102 37.8362C70.4771 37.9428 70.3166 38.0002 70.1518 38.0001C69.9871 38 69.8266 37.9425 69.6936 37.8358L60.0064 30.0257L50.3147 37.8341C50.1817 37.94 50.0216 37.9968 49.8574 37.9964C49.6932 37.9959 49.5334 37.9384 49.4009 37.8319C49.2683 37.7254 49.1699 37.5754 49.1198 37.4036C49.0697 37.2318 49.0704 37.047 49.1218 36.8756L53.0104 24.0425L43.7213 15.5812C43.6012 15.4675 43.5155 15.3162 43.4758 15.1475C43.436 14.9789 43.4441 14.8009 43.499 14.6374C43.5539 14.4739 43.6529 14.3328 43.7828 14.2329C43.9127 14.1329 44.0673 14.079 44.2258 14.0783H55.3429L59.2816 1.81801Z" stroke="#191919" stroke-linecap="round" stroke-linejoin="round"/>
<path d="M101.973 1.55385C102.028 1.39117 102.128 1.25097 102.257 1.152C102.387 1.05303 102.542 1 102.7 1C102.858 1 103.012 1.05303 103.142 1.152C103.272 1.25097 103.371 1.39117 103.427 1.55385L107.363 13.8158H118.478C118.637 13.8165 118.791 13.8705 118.921 13.9704C119.051 14.0703 119.15 14.2114 119.205 14.3749C119.26 14.5384 119.268 14.7164 119.228 14.8851C119.188 15.0537 119.103 15.205 118.983 15.3187L109.695 23.78L113.582 36.6131C113.634 36.785 113.634 36.9705 113.584 37.1428C113.533 37.3152 113.435 37.4654 113.301 37.572C113.168 37.6786 113.008 37.736 112.843 37.7359C112.678 37.7359 112.518 37.6783 112.385 37.5716L102.698 29.7616L93.0058 37.57C92.8729 37.6758 92.7128 37.7326 92.5486 37.7322C92.3844 37.7318 92.2246 37.6742 92.092 37.5677C91.9595 37.4612 91.8611 37.3113 91.811 37.1395C91.7608 36.9677 91.7615 36.7828 91.813 36.6115L95.7015 23.7784L86.4125 15.3171C86.2923 15.2034 86.2066 15.0521 86.1669 14.8834C86.1272 14.7147 86.1353 14.5367 86.1902 14.3732C86.245 14.2098 86.3441 14.0686 86.474 13.9687C86.6038 13.8688 86.7584 13.8149 86.917 13.8142H98.034L101.973 1.55385Z" fill="#FFEF5E"/>
<path d="M102.457 30.0258L92.7656 37.8342C92.6326 37.94 92.4725 37.9968 92.3084 37.9964C92.1442 37.996 91.9843 37.9384 91.8518 37.8319C91.7193 37.7254 91.6209 37.5755 91.5707 37.4036C91.5206 37.2318 91.5213 37.047 91.5727 36.8756L95.4613 24.0426L86.1722 15.5812C86.0521 15.4676 85.9664 15.3162 85.9267 15.1476C85.8869 14.9789 85.8951 14.8009 85.9499 14.6374C86.0048 14.4739 86.1038 14.3328 86.2337 14.2329C86.3636 14.133 86.5182 14.0791 86.6767 14.0783H97.7938L101.729 1.81637C101.785 1.65305 101.884 1.51232 102.015 1.41318C102.145 1.31404 102.3 1.26126 102.459 1.26197L102.457 30.0258Z" fill="#FFEF5E"/>
<path d="M101.732 1.81801C101.788 1.65533 101.887 1.51513 102.017 1.41616C102.147 1.31719 102.302 1.26416 102.46 1.26416C102.618 1.26416 102.772 1.31719 102.902 1.41616C103.032 1.51513 103.131 1.65533 103.187 1.81801L107.122 14.08H118.238C118.396 14.0807 118.551 14.1346 118.681 14.2345C118.811 14.3344 118.91 14.4756 118.965 14.6391C119.02 14.8025 119.028 14.9805 118.988 15.1492C118.948 15.3179 118.863 15.4692 118.742 15.5829L109.455 24.0442L113.342 36.8773C113.394 37.0492 113.394 37.2347 113.344 37.407C113.293 37.5793 113.194 37.7296 113.061 37.8362C112.928 37.9428 112.767 38.0002 112.603 38.0001C112.438 38 112.278 37.9425 112.144 37.8358L102.457 30.0257L92.7656 37.8341C92.6326 37.94 92.4725 37.9968 92.3084 37.9964C92.1442 37.9959 91.9843 37.9384 91.8518 37.8319C91.7193 37.7254 91.6209 37.5754 91.5707 37.4036C91.5206 37.2318 91.5213 37.047 91.5727 36.8756L95.4613 24.0425L86.1722 15.5812C86.0521 15.4675 85.9664 15.3162 85.9267 15.1475C85.8869 14.9789 85.8951 14.8009 85.9499 14.6374C86.0048 14.4739 86.1038 14.3328 86.2337 14.2329C86.3636 14.1329 86.5182 14.079 86.6767 14.0783H97.7938L101.732 1.81801Z" stroke="#191919" stroke-linecap="round" stroke-linejoin="round"/>
<path d="M144.424 1.55385C144.479 1.39117 144.578 1.25097 144.708 1.152C144.838 1.05303 144.993 1 145.151 1C145.309 1 145.463 1.05303 145.593 1.152C145.723 1.25097 145.822 1.39117 145.878 1.55385L149.814 13.8158H160.929C161.088 13.8165 161.242 13.8705 161.372 13.9704C161.502 14.0703 161.601 14.2114 161.656 14.3749C161.711 14.5384 161.719 14.7164 161.679 14.8851C161.639 15.0537 161.554 15.205 161.434 15.3187L152.146 23.78L156.033 36.6131C156.085 36.785 156.085 36.9705 156.035 37.1428C155.984 37.3152 155.885 37.4654 155.752 37.572C155.619 37.6786 155.459 37.736 155.294 37.7359C155.129 37.7359 154.969 37.6783 154.836 37.5716L145.148 29.7616L135.457 37.57C135.324 37.6758 135.164 37.7326 135 37.7322C134.835 37.7318 134.675 37.6742 134.543 37.5677C134.41 37.4612 134.312 37.3113 134.262 37.1395C134.212 36.9677 134.212 36.7828 134.264 36.6115L138.152 23.7784L128.863 15.3171C128.743 15.2034 128.658 15.0521 128.618 14.8834C128.578 14.7147 128.586 14.5367 128.641 14.3732C128.696 14.2098 128.795 14.0686 128.925 13.9687C129.055 13.8688 129.209 13.8149 129.368 13.8142H140.485L144.424 1.55385Z" fill="#FFEF5E"/>
<path d="M144.908 30.0258L135.217 37.8342C135.084 37.94 134.923 37.9968 134.759 37.9964C134.595 37.996 134.435 37.9384 134.303 37.8319C134.17 37.7254 134.072 37.5755 134.022 37.4036C133.972 37.2318 133.972 37.047 134.024 36.8756L137.912 24.0426L128.623 15.5812C128.503 15.4676 128.417 15.3162 128.378 15.1476C128.338 14.9789 128.346 14.8009 128.401 14.6374C128.456 14.4739 128.555 14.3328 128.685 14.2329C128.815 14.133 128.969 14.0791 129.128 14.0783H140.245L144.18 1.81637C144.236 1.65305 144.335 1.51232 144.466 1.41318C144.596 1.31404 144.751 1.26126 144.91 1.26197L144.908 30.0258Z" fill="#FFEF5E"/>
<path d="M144.183 1.81801C144.239 1.65533 144.338 1.51513 144.468 1.41616C144.598 1.31719 144.752 1.26416 144.911 1.26416C145.069 1.26416 145.223 1.31719 145.353 1.41616C145.483 1.51513 145.582 1.65533 145.638 1.81801L149.573 14.08H160.689C160.847 14.0807 161.002 14.1346 161.132 14.2345C161.262 14.3344 161.361 14.4756 161.416 14.6391C161.471 14.8025 161.479 14.9805 161.439 15.1492C161.399 15.3179 161.313 15.4692 161.193 15.5829L151.906 24.0442L155.793 36.8773C155.844 37.0492 155.845 37.2347 155.795 37.407C155.744 37.5793 155.645 37.7296 155.512 37.8362C155.379 37.9428 155.218 38.0002 155.054 38.0001C154.889 38 154.728 37.9425 154.595 37.8358L144.908 30.0257L135.217 37.8341C135.084 37.94 134.923 37.9968 134.759 37.9964C134.595 37.9959 134.435 37.9384 134.303 37.8319C134.17 37.7254 134.072 37.5754 134.022 37.4036C133.972 37.2318 133.972 37.047 134.024 36.8756L137.912 24.0425L128.623 15.5812C128.503 15.4675 128.417 15.3162 128.378 15.1475C128.338 14.9789 128.346 14.8009 128.401 14.6374C128.456 14.4739 128.555 14.3328 128.685 14.2329C128.815 14.1329 128.969 14.079 129.128 14.0783H140.245L144.183 1.81801Z" stroke="#191919" stroke-linecap="round" stroke-linejoin="round"/>
<path d="M186.875 1.55385C186.93 1.39117 187.029 1.25097 187.159 1.152C187.289 1.05303 187.444 1 187.602 1C187.76 1 187.914 1.05303 188.044 1.152C188.174 1.25097 188.273 1.39117 188.329 1.55385L192.264 13.8158H203.38C203.539 13.8165 203.693 13.8705 203.823 13.9704C203.953 14.0703 204.052 14.2114 204.107 14.3749C204.162 14.5384 204.17 14.7164 204.13 14.8851C204.09 15.0537 204.005 15.205 203.884 15.3187L194.597 23.78L198.484 36.6131C198.536 36.785 198.536 36.9705 198.486 37.1428C198.435 37.3152 198.336 37.4654 198.203 37.572C198.07 37.6786 197.91 37.736 197.745 37.7359C197.58 37.7359 197.42 37.6783 197.287 37.5716L187.599 29.7616L177.908 37.57C177.775 37.6758 177.615 37.7326 177.45 37.7322C177.286 37.7318 177.126 37.6742 176.994 37.5677C176.861 37.4612 176.763 37.3113 176.713 37.1395C176.663 36.9677 176.663 36.7828 176.715 36.6115L180.603 23.7784L171.314 15.3171C171.194 15.2034 171.108 15.0521 171.069 14.8834C171.029 14.7147 171.037 14.5367 171.092 14.3732C171.147 14.2098 171.246 14.0686 171.376 13.9687C171.506 13.8688 171.66 13.8149 171.819 13.8142H182.936L186.875 1.55385Z" fill="#FFEF5E"/>
<path d="M187.359 30.0258L177.667 37.8342C177.534 37.94 177.374 37.9968 177.21 37.9964C177.046 37.996 176.886 37.9384 176.754 37.8319C176.621 37.7254 176.523 37.5755 176.473 37.4036C176.422 37.2318 176.423 37.047 176.475 36.8756L180.363 24.0426L171.074 15.5812C170.954 15.4676 170.868 15.3162 170.829 15.1476C170.789 14.9789 170.797 14.8009 170.852 14.6374C170.907 14.4739 171.006 14.3328 171.136 14.2329C171.265 14.133 171.42 14.0791 171.579 14.0783H182.696L186.631 1.81637C186.687 1.65305 186.786 1.51232 186.917 1.41318C187.047 1.31404 187.202 1.26126 187.361 1.26197L187.359 30.0258Z" fill="#FFEF5E"/>
<path d="M186.634 1.81801C186.69 1.65533 186.789 1.51513 186.919 1.41616C187.049 1.31719 187.203 1.26416 187.361 1.26416C187.52 1.26416 187.674 1.31719 187.804 1.41616C187.934 1.51513 188.033 1.65533 188.089 1.81801L192.024 14.08H203.14C203.298 14.0807 203.453 14.1346 203.583 14.2345C203.713 14.3344 203.812 14.4756 203.867 14.6391C203.921 14.8025 203.93 14.9805 203.89 15.1492C203.85 15.3179 203.764 15.4692 203.644 15.5829L194.357 24.0442L198.244 36.8773C198.295 37.0492 198.296 37.2347 198.246 37.407C198.195 37.5793 198.096 37.7296 197.963 37.8362C197.83 37.9428 197.669 38.0002 197.505 38.0001C197.34 38 197.179 37.9425 197.046 37.8358L187.359 30.0257L177.667 37.8341C177.534 37.94 177.374 37.9968 177.21 37.9964C177.046 37.9959 176.886 37.9384 176.754 37.8319C176.621 37.7254 176.523 37.5754 176.473 37.4036C176.422 37.2318 176.423 37.047 176.475 36.8756L180.363 24.0425L171.074 15.5812C170.954 15.4675 170.868 15.3162 170.829 15.1475C170.789 14.9789 170.797 14.8009 170.852 14.6374C170.907 14.4739 171.006 14.3328 171.136 14.2329C171.265 14.1329 171.42 14.079 171.579 14.0783H182.696L186.634 1.81801Z" stroke="#191919" stroke-linecap="round" stroke-linejoin="round"/>
</svg>
