<svg width="64" height="64" viewBox="0 0 64 64" fill="none" xmlns="http://www.w3.org/2000/svg">
<g clip-path="url(#clip0_274_1210)">
<path d="M42.6666 26.6667C42.6666 32.56 37.8933 37.3333 32 37.3333C26.1066 37.3333 21.3333 32.56 21.3333 26.6667C21.3333 20.7733 26.1066 16 32 16C37.8933 16 42.6666 20.7733 42.6666 26.6667Z" fill="white"/>
<path fill-rule="evenodd" clip-rule="evenodd" d="M32 64C49.68 64 64 49.68 64 32C64 14.32 49.68 0 32 0C14.32 0 0 14.32 0 32C0 49.68 14.32 64 32 64ZM48.72 56.1067C56.3467 50.8 61.3333 42 61.3333 32C61.3333 15.7867 48.2133 2.66667 32 2.66667C15.7867 2.66667 2.66667 15.7867 2.66667 32C2.66667 42 7.65333 50.8 15.28 56.1067C17.16 52.5867 23.2267 42.6667 32 42.6667C40.7733 42.6667 46.8267 52.5867 48.72 56.1067Z" fill="white"/>
</g>
<defs>
<clipPath id="clip0_274_1210">
<rect width="64" height="64" fill="white"/>
</clipPath>
</defs>
</svg>
