<svg width="118" height="118" viewBox="0 0 118 118" fill="none" xmlns="http://www.w3.org/2000/svg">
<g clip-path="url(#clip0_507_666)">
<path d="M81.125 51.625C81.125 63.8675 71.2425 73.75 59 73.75C46.7575 73.75 36.875 63.8675 36.875 51.625C36.875 39.3825 46.7575 29.5 59 29.5C71.2425 29.5 81.125 39.3825 81.125 51.625Z" fill="white"/>
<path fill-rule="evenodd" clip-rule="evenodd" d="M118 59C118 91.5975 91.5975 118 59 118C26.4025 118 0 91.5975 0 59C0 26.4025 26.4025 0 59 0C91.5975 0 118 26.4025 118 59ZM29.5 101.406C30.68 99.4445 42.1112 81.125 58.9262 81.125C75.6675 81.125 87.1725 99.4887 88.3525 101.406C95.2103 96.664 100.814 90.327 104.68 82.9401C108.547 75.5533 110.562 67.3377 110.551 59C110.551 30.4588 87.4675 7.375 58.9262 7.375C30.385 7.375 7.30125 30.4588 7.30125 59C7.30125 76.5525 16.0775 92.1137 29.5 101.406Z" fill="white"/>
</g>
<defs>
<clipPath id="clip0_507_666">
<rect width="118" height="118" fill="white"/>
</clipPath>
</defs>
</svg>
